<?xml version="1.0" encoding="utf-8"?>
<!-- Generator: Adobe Illustrator 18.1.1, SVG Export Plug-In . SVG Version: 6.00 Build 0)  -->
<!DOCTYPE svg PUBLIC "-//W3C//DTD SVG 1.1//EN" "http://www.w3.org/Graphics/SVG/1.1/DTD/svg11.dtd">
<svg version="1.1" id="Layer_1" xmlns="http://www.w3.org/2000/svg" xmlns:xlink="http://www.w3.org/1999/xlink" x="0px" y="0px"
	 viewBox="0 0 1280 800" enable-background="new 0 0 1280 800" xml:space="preserve">
<polygon fill="#88FF88" points="530.7,628.1 776.3,382.5 827.5,433.7 530.7,730.6 372.2,571.9 423.5,520.9 "/>
<path d="M375.6,268.9L375.6,268.9l12.5-48.4l-35.3,35.6l0,0c-1.6,1.2-3.8,4.1-5.3,6.9c-6.6,11.6-6.2,23.8,0.6,27.8
	c6.9,3.8,17.5-2.2,24.1-13.7C373.7,274.3,375.3,270.8,375.6,268.9z"/>
<path d="M905.2,254.9L905.2,254.9l-37.8-32.8l15.9,47.5l0,0c0.3,1.9,2.2,5,4.1,7.8c7.5,10.9,18.4,16.3,25,11.9
	c6.6-4.4,5.9-16.6-1.6-27.5C909,258.9,906.8,256.1,905.2,254.9z"/>
<g>
	<path d="M657.2,149.6L657.2,149.6l-16.8-62.1l-16.8,62.1l0,0c-0.8,0-1.2,5.2-1.2,9.2c0,17.2,8,29.7,18,29.7s18-12,18-28.9
		C658.8,155.2,658,149.6,657.2,149.6z"/>
	<rect x="634" y="12.1" width="10.4" height="29.7"/>
	<rect x="599.1" y="16.9" transform="matrix(-0.9659 0.2588 -0.2588 -0.9659 1196.255 -94.1039)" width="10.4" height="29.7"/>
	<rect x="566.6" y="30.5" transform="matrix(-0.866 0.5 -0.5 -0.866 1089.6653 -201.363)" width="10.4" height="29.7"/>
	<rect x="538.5" y="52.3" transform="matrix(-0.7071 0.7071 -0.7071 -0.7071 975.607 -269.9464)" width="10.4" height="29.7"/>
	<rect x="517.4" y="80.5" transform="matrix(-0.5 0.866 -0.866 -0.5 866.5341 -309.6659)" width="10.4" height="29.7"/>
	<rect x="504" y="112.9" transform="matrix(-0.2588 0.9659 -0.9659 -0.2588 764.3752 -330.9926)" width="10.4" height="29.7"/>
	<rect x="490.1" y="158" width="29.7" height="10.4"/>
	<rect x="504.4" y="183" transform="matrix(0.2588 0.9659 -0.9659 0.2588 568.7435 -345.607)" width="10.4" height="29.7"/>
	<rect x="518" y="215.6" transform="matrix(0.5 0.866 -0.866 0.5 461.1186 -337.9276)" width="10.4" height="29.7"/>
	<rect x="539.5" y="243.6" transform="matrix(0.7071 0.7071 -0.7071 0.7071 342.307 -309.4524)" width="10.4" height="29.7"/>
	<rect x="730.8" y="242.5" transform="matrix(0.7071 -0.7071 0.7071 0.7071 33.6258 595.819)" width="10.4" height="29.7"/>
	<rect x="752.2" y="214.3" transform="matrix(0.5 -0.866 0.866 0.5 180.2493 770.4634)" width="10.4" height="29.7"/>
	<rect x="765.6" y="181.6" transform="matrix(0.2588 -0.9659 0.9659 0.2588 381.5803 890.1953)" width="10.4" height="29.7"/>
	<rect x="760.2" y="156.4" width="29.7" height="10.4"/>
	<rect x="765.4" y="111.5" transform="matrix(-0.2588 -0.9659 0.9659 -0.2588 847.9501 903.3904)" width="10.4" height="29.7"/>
	<rect x="751.6" y="79.1" transform="matrix(-0.5 -0.866 0.866 -0.5 1053.8438 796.2674)" width="10.4" height="29.7"/>
	<rect x="729.7" y="51.3" transform="matrix(-0.7071 -0.7071 0.7071 -0.7071 1207.8304 632.6122)" width="10.4" height="29.7"/>
	<rect x="701.9" y="29.8" transform="matrix(-0.866 -0.5 0.5 -0.866 1297.0934 436.7457)" width="10.4" height="29.7"/>
	<rect x="669.3" y="16.6" transform="matrix(-0.9659 -0.2588 0.2588 -0.9659 1317.9745 236.3608)" width="10.4" height="29.7"/>
</g>
<rect x="346.5" y="154.9" width="8.1" height="23.1"/>
<rect x="319.3" y="158.5" transform="matrix(-0.9659 0.2588 -0.2588 -0.9659 679.7428 250.6871)" width="8.1" height="23.1"/>
<rect x="293.7" y="169.3" transform="matrix(-0.866 0.5 -0.5 -0.866 646.0131 188.5732)" width="8.1" height="23.1"/>
<rect x="272" y="186.1" transform="matrix(-0.7071 0.7071 -0.7071 -0.7071 611.0441 142.1626)" width="8.1" height="23.1"/>
<rect x="255.6" y="208.1" transform="matrix(-0.5 0.866 -0.866 -0.5 579.6515 104.5817)" width="8.1" height="23.1"/>
<rect x="245" y="233.7" transform="matrix(-0.2588 0.9659 -0.9659 -0.2588 550.3311 68.1418)" width="8.1" height="23.1"/>
<rect x="234" y="268.6" width="23.1" height="8.1"/>
<rect x="245.4" y="288.3" transform="matrix(0.2588 0.9659 -0.9659 0.2588 474.466 -18.699)" width="8.1" height="23.1"/>
<rect x="256" y="313.6" transform="matrix(0.5 0.866 -0.866 0.5 411.6839 -62.6616)" width="8.1" height="23.1"/>
<rect x="272.6" y="335.3" transform="matrix(0.7071 0.7071 -0.7071 0.7071 326.3033 -94.0454)" width="8.1" height="23.1"/>
<rect x="421.8" y="334.6" transform="matrix(0.7071 -0.7071 0.7071 0.7071 -120.0214 402.5052)" width="8.1" height="23.1"/>
<rect x="438.5" y="312.6" transform="matrix(0.5 -0.866 0.866 0.5 -59.4827 545.3208)" width="8.1" height="23.1"/>
<rect x="449" y="287.2" transform="matrix(0.2588 -0.9659 0.9659 0.2588 47.2613 659.0234)" width="8.1" height="23.1"/>
<rect x="444.9" y="267.4" width="23.1" height="8.1"/>
<rect x="448.9" y="232.5" transform="matrix(-0.2588 -0.9659 0.9659 -0.2588 334.3887 744.7097)" width="8.1" height="23.1"/>
<rect x="438.1" y="207.2" transform="matrix(-0.5 -0.866 0.866 -0.5 473.8336 711.0729)" width="8.1" height="23.1"/>
<rect x="421.1" y="185.5" transform="matrix(-0.7071 -0.7071 0.7071 -0.7071 586.4565 637.0854)" width="8.1" height="23.1"/>
<rect x="399.4" y="168.7" transform="matrix(-0.866 -0.5 0.5 -0.866 662.7501 538.0692)" width="8.1" height="23.1"/>
<rect x="373.8" y="158.3" transform="matrix(-0.9659 -0.2588 0.2588 -0.9659 698.8126 431.7413)" width="8.1" height="23.1"/>
<rect x="899" y="154.9" width="8.1" height="23.1"/>
<rect x="871.8" y="158.5" transform="matrix(-0.9659 0.2588 -0.2588 -0.9659 1765.9016 107.7431)" width="8.1" height="23.1"/>
<rect x="846.4" y="169.1" transform="matrix(-0.866 0.5 -0.5 -0.866 1677.4163 -88.0606)" width="8.1" height="23.1"/>
<rect x="824.5" y="186.1" transform="matrix(-0.7071 0.7071 -0.7071 -0.7071 1554.2665 -248.456)" width="8.1" height="23.1"/>
<rect x="808.1" y="208.1" transform="matrix(-0.5 0.866 -0.866 -0.5 1408.4929 -373.8312)" width="8.1" height="23.1"/>
<rect x="797.5" y="233.7" transform="matrix(-0.2588 0.9659 -0.9659 -0.2588 1245.9152 -465.4833)" width="8.1" height="23.1"/>
<rect x="786.5" y="268.6" width="23.1" height="8.1"/>
<rect x="797.9" y="288.3" transform="matrix(0.2588 0.9659 -0.9659 0.2588 884.0871 -552.3993)" width="8.1" height="23.1"/>
<rect x="808.5" y="313.4" transform="matrix(0.5 0.866 -0.866 0.5 687.7005 -541.1733)" width="8.1" height="23.1"/>
<rect x="825.2" y="335.3" transform="matrix(0.7071 0.7071 -0.7071 0.7071 488.1797 -484.7727)" width="8.1" height="23.1"/>
<rect x="974.4" y="334.5" transform="matrix(0.7071 -0.7071 0.7071 0.7071 41.855 793.2325)" width="8.1" height="23.1"/>
<rect x="991" y="312.6" transform="matrix(0.5 -0.866 0.866 0.5 216.8469 1023.8328)" width="8.1" height="23.1"/>
<rect x="1001.6" y="287.1" transform="matrix(0.2588 -0.9659 0.9659 0.2588 456.8826 1192.723)" width="8.1" height="23.1"/>
<rect x="997.4" y="257.4" width="23.1" height="8.1"/>
<rect x="1001.4" y="232.4" transform="matrix(-0.2588 -0.9659 0.9659 -0.2588 1029.9731 1278.3341)" width="8.1" height="23.1"/>
<rect x="990.6" y="207.1" transform="matrix(-0.5 -0.866 0.866 -0.5 1302.6753 1189.4866)" width="8.1" height="23.1"/>
<rect x="973.6" y="185.5" transform="matrix(-0.7071 -0.7071 0.7071 -0.7071 1529.679 1027.7039)" width="8.1" height="23.1"/>
<rect x="951.9" y="168.7" transform="matrix(-0.866 -0.5 0.5 -0.866 1693.7262 814.276)" width="8.1" height="23.1"/>
<rect x="926.3" y="158.3" transform="matrix(-0.9659 -0.2588 0.2588 -0.9659 1784.9714 574.6848)" width="8.1" height="23.1"/>
<text transform="matrix(1 0 0 1 257.6676 546.5568)" font-family="'Futura-Book'" font-size="141.6206">WP Monitor</text>
</svg>
